<?xml version="1.0" encoding="UTF-8"?>
<svg xmlns="http://www.w3.org/2000/svg" version="1.1" viewBox="0 0 48 48" fill="#65d46e">
  <!-- Generator: Adobe Illustrator 28.7.1, SVG Export Plug-In . SVG Version: 1.2.0 Build 142)  -->
  <g>
    <g id="Outline">
      <g>
        <path d="M41,11c-2.75684,0-5-2.24316-5-5,0-.55273-.44775-1-1-1H13c-.55225,0-1,.44727-1,1,0,2.75684-2.24316,5-5,5-.55225,0-1,.44727-1,1v5.97266c0,11.20605,7.1001,21.24023,17.66699,24.9707.10791.03809.22021.05664.33301.05664s.2251-.01855.33301-.05664c10.56689-3.73047,17.66699-13.76465,17.66699-24.9707v-5.97266c0-.55273-.44775-1-1-1ZM40,17.97266c0,10.24121-6.41504,19.4248-16,22.96387-9.58496-3.53906-16-12.72266-16-22.96387v-5.04395c3.06104-.43945,5.48877-2.86719,5.92871-5.92871h20.14258c.43994,3.06152,2.86768,5.48926,5.92871,5.92871v5.04395Z"/>
        <path d="M24,9c-7.16846,0-13,5.83203-13,13s5.83154,13,13,13,13-5.83203,13-13-5.83154-13-13-13ZM32.47858,15h-3.3736c-.36786-1.2948-.83759-2.42218-1.39081-3.34082,1.87366.67529,3.51819,1.83405,4.7644,3.34082ZM24,11c1.07452,0,2.22028,1.52673,3.00922,4h-6.01843c.78894-2.47327,1.93469-4,3.00922-4ZM27.51892,17c.24365,1.20874.40808,2.55304.46027,4h-7.95837c.05219-1.44696.21661-2.79126.46027-4h7.03784ZM20.28583,11.65918c-.55322.91864-1.02295,2.04602-1.39081,3.34082h-3.3736c1.24622-1.50677,2.89075-2.66553,4.7644-3.34082ZM14.21429,17h4.21655c-.22473,1.23737-.36353,2.58081-.40906,4h-4.97113c.1297-1.43048.53729-2.77936,1.16364-4ZM14.21429,27c-.62634-1.22064-1.03394-2.56952-1.16364-4h4.97113c.04553,1.41919.18433,2.76263.40906,4h-4.21655ZM15.52142,29h3.3736c.36786,1.2948.83759,2.42218,1.39081,3.34082-1.87366-.67529-3.51819-1.83405-4.7644-3.34082ZM24,33c-1.07452,0-2.22028-1.52673-3.00922-4h6.01843c-.78894,2.47327-1.93469,4-3.00922,4ZM20.48108,27c-.24365-1.20874-.40808-2.55304-.46027-4h7.95837c-.05219,1.44696-.21661,2.79126-.46027,4h-7.03784ZM27.71417,32.34082c.55322-.91864,1.02295-2.04602,1.39081-3.34082h3.3736c-1.24622,1.50677-2.89075,2.66553-4.7644,3.34082ZM33.78571,27h-4.21655c.22473-1.23737.36353-2.58081.40906-4h4.97113c-.1297,1.43048-.53729,2.77936-1.16364,4ZM34.94934,21h-4.97113c-.04553-1.41919-.18433-2.76263-.40906-4h4.21655c.62634,1.22064,1.03394,2.56952,1.16364,4Z"/>
      </g>
    </g>
  </g>
</svg>