<?xml version="1.0" encoding="UTF-8"?>
<svg id="Outline" xmlns="http://www.w3.org/2000/svg" version="1.1" viewBox="0 0 64 64">
  <!-- Generator: Adobe Illustrator 29.5.1, SVG Export Plug-In . SVG Version: 2.1.0 Build 141)  -->
  <path d="M47,25h-8v-1c2.21,0,4-1.79,4-4v-5c0-1.3-.84-2.4-2-2.82v-4.18c0-.55-.45-1-1-1s-1,.45-1,1v4.18c-1.16.42-2,1.52-2,2.82v3h-2.18c.11-.31.18-.65.18-1v-2c0-1.65-1.35-3-3-3s-3,1.35-3,3v2c0,.35.07.69.18,1h-2.18v-3c0-1.3-.84-2.4-2-2.82v-4.18c0-.55-.45-1-1-1s-1,.45-1,1v4.18c-1.16.42-2,1.52-2,2.82v5c0,2.21,1.79,4,4,4v1h-8c-.55,0-1,.45-1,1v6c0,.55.45,1,1,1h10c.55,0,1-.45,1-1v-2h3v3.05c-6.15.51-11,5.67-11,11.95,0,2.62.85,5.03,2.28,7.01l-1.23,3.67c-.17.53.11,1.09.631,1.27.528.144,1.089-.089,1.269-.63l.86-2.58c2.14,2.02,5.02,3.26,8.19,3.26s6.05-1.24,8.19-3.26l.86,2.58c.406,1.217,2.297.599,1.9-.64l-1.23-3.67c1.43-1.98,2.28-4.39,2.28-7.01,0-6.28-4.85-11.44-11-11.95v-3.05h3v2c0,.55.45,1,1,1h2c.55,0,1-.45,1-1s-.45-1-1-1h-1v-4h8v4h-3c-.55,0-1,.45-1,1s.45,1,1,1h4c.55,0,1-.45,1-1v-6c0-.55-.45-1-1-1ZM31,15c0-.55.45-1,1-1s1,.45,1,1v2c0,.55-.45,1-1,1s-1-.45-1-1v-2ZM26,31h-8v-4h8v4ZM42,45c0,5.51-4.49,10-10,10s-10-4.49-10-10,4.49-10,10-10,10,4.49,10,10ZM37,23v2c-.55,0-1,.45-1,1v2h-8v-2c0-.55-.45-1-1-1v-2c0-.55-.45-1-1-1h-1c-1.1,0-2-.9-2-2v-5c0-.55.45-1,1-1s1,.45,1,1v4c0,.55.45,1,1,1h12c.55,0,1-.45,1-1v-4c0-.55.45-1,1-1s1,.45,1,1v5c0,1.1-.9,2-2,2h-1c-.55,0-1,.45-1,1Z"/>
  <path d="M13,52.586v-28.586h3c.552,0,1-.448,1-1s-.448-1-1-1h-3v-2h3c.552,0,1-.448,1-1s-.448-1-1-1h-3v-1c0-.552-.448-1-1-1s-1,.448-1,1v1h-3c-.552,0-1,.448-1,1s.448,1,1,1h3v2h-3c-.552,0-1,.448-1,1s.448,1,1,1h3v28.586l-2.707,2.707c-.391.391-.391,1.023,0,1.414s1.023.391,1.414,0l2.293-2.293,2.293,2.293c.195.195.451.293.707.293.872,0,1.326-1.088.707-1.707l-2.707-2.707Z"/>
  <path d="M53,52.586v-12.586c0-.552-.448-1-1-1s-1,.448-1,1v12.586l-2.707,2.707c-.391.391-.391,1.023,0,1.414s1.023.391,1.414,0l2.293-2.293s2.293,2.293,2.293,2.293c.388.388,1.027.387,1.414,0,.391-.391.391-1.023,0-1.414l-2.707-2.707Z"/>
  <path d="M56,18h-8c-.552,0-1,.448-1,1v4c0,.552.448,1,1,1h3v12c0,.552.448,1,1,1s1-.448,1-1v-12h3c.552,0,1-.448,1-1v-4c0-.552-.448-1-1-1ZM55,22h-6v-2h6v2Z"/>
  <path d="M31.148,38.476l-1.995,3.241-3.698.896c-.337.082-.608.333-.716.663s-.036.692.189.957l2.465,2.898-.291,3.794c-.026.347.128.682.409.886.282.204.649.248.969.116l3.518-1.449,3.518,1.449c.122.05.252.075.381.075.577,0,1.041-.5.997-1.077l-.291-3.794,2.465-2.898c.225-.265.297-.627.189-.957s-.378-.581-.716-.663l-3.698-.896-1.995-3.241c-.364-.591-1.339-.591-1.703,0ZM33.359,43.116c.138.225.36.385.616.447l2.519.61-1.679,1.974c-.171.201-.255.461-.235.725l.198,2.584-2.397-.987c-.122-.05-.251-.075-.381-.075s-.259.025-.381.075l-2.397.987.198-2.584c.02-.263-.064-.523-.235-.725l-1.679-1.974,2.519-.61c.256-.062.478-.223.616-.447l1.359-2.208,1.359,2.208Z"/>
</svg>