<svg height="512pt" viewBox="-89 0 512 512" width="512pt" xmlns="http://www.w3.org/2000/svg"><path d="m316.839844 269.597656h-6.527344v-74.511718c0-5.792969-2.222656-11.277344-6.253906-15.441407l-19.738282-20.375c6.011719-13.46875-3.957031-28.523437-18.523437-28.523437-11.183594 0-20.285156 9.101562-20.285156 20.285156 0 14.414062 14.730469 24.304688 28.082031 18.722656l19.691406 20.328125c1.308594 1.347657 2.027344 3.125 2.027344 5.003907v74.511718h-19.582031v-13.175781c0-4.144531-3.359375-7.5-7.503907-7.5-4.140624 0-7.5 3.355469-7.5 7.5v13.175781h-21.40625v-52.199218c0-4.144532-3.355468-7.5-7.5-7.5-4.140624 0-7.5 3.355468-7.5 7.5v52.199218h-33.375l-7.828124-65.265625 1.53125-2.304687c5.511718 3.449218 12.730468 1.359375 15.597656-4.390625l13.300781-26.652344 30.457031 11.796875c1.300782.570312 16.726563 7.769531 16.726563 26.234375v12.402344c0 4.144531 3.355469 7.5 7.5 7.5 4.140625 0 7.5-3.355469 7.5-7.5v-12.402344c0-29.078125-24.976563-39.679687-26.042969-40.117187-.046875-.019532-.09375-.039063-.140625-.058594l-53.046875-20.542969v-9.054687c8.625-6.9375 14.695312-16.910157 16.574219-28.285157 21.132812-3.789062 28.386719-27.621093 13.953125-41.296875v-9.835937c0-32.988281-26.839844-59.824219-59.824219-59.824219s-59.820313 26.835938-59.820313 59.824219v10.1875c-13.914062 13.679687-6.738281 36.886719 13.921876 40.871093 1.832031 11.417969 7.820312 21.3125 16.46875 28.210938v9.203125c-.078126.03125-53.050782 20.566406-53.128907 20.597656-1.0625.4375-26.039062 11.042969-26.039062 40.117188v60.582031h-20.566407v-74.511719c0-1.875.71875-3.652343 2.023438-5l19.691406-20.328125c13.355469 5.582032 28.085938-4.308594 28.085938-18.722656 0-11.1875-9.101563-20.285156-20.289063-20.285156-14.566406 0-24.53125 15.054687-18.519531 28.519531l-19.742188 20.378906c-4.03125 4.160157-6.25 9.644531-6.25 15.4375v74.511719h-5.605468c-9.613282 0-17.433594 7.820312-17.433594 17.433594v10.910156c0 9.171875 7.125 16.695312 16.125 17.367188v60.09375c0 11.039062 8.980469 20.015624 20.019531 20.015624h16.707031l5.347657 101.546876c.441406 8.433593 7.40625 15.039062 15.851562 15.039062h75.585938c4.140625 0 7.5-3.359375 7.5-7.5 0-4.144531-3.359375-7.5-7.5-7.5h-75.585938c-.464843 0-.847656-.363281-.875-.828125l-5.300781-100.757813h198.585938l-5.304688 100.757813c-.023438.464844-.40625.828125-.871094.828125h-75.648437c-4.140625 0-7.5 3.355469-7.5 7.5 0 4.140625 3.359375 7.5 7.5 7.5h75.648437c8.445313 0 15.40625-6.605469 15.851563-15.039062l5.347656-101.542969h16.707031c11.039063 0 20.015625-8.980469 20.015625-20.019531v-60.097657c8.976563-.699219 16.066407-8.210937 16.066407-17.363281v-10.910156c0-9.613282-7.820313-17.429688-17.433594-17.429688zm-51.042969-113.28125c-2.914063 0-5.285156-2.371094-5.285156-5.285156s2.371093-5.285156 5.285156-5.285156 5.285156 2.371094 5.285156 5.285156-2.371093 5.285156-5.285156 5.285156zm-52.097656-77.785156c7.753906 3.578125 7.8125 13.039062 0 16.652344zm-92.992188 16.496094c-7.316406-3.691406-7.339843-12.652344 0-16.316406zm-53.15625 50.71875c2.914063 0 5.285157 2.371094 5.285157 5.285156s-2.371094 5.285156-5.285157 5.285156c-2.914062 0-5.285156-2.371094-5.285156-5.285156s2.371094-5.285156 5.285156-5.285156zm131.945313 19.796875-10.558594 21.160156c-.152344-.105469-.566406-.402344-10.941406-7.769531 4.449218-5.492188 8.886718-10.972656 13.390625-16.53125zm-33.878906 44.4375h3.070312l7.152344 59.617187h-17.375zm-3.710938-16.625 5.246094-3.722657 5.246094 3.722657-1.078126 1.625h-8.335937zm5.246094-24.867188-14.378906-17.746093v-3.625c8.726562 2.742187 19.132812 3.171874 28.726562.160156v3.5c-3.195312 3.941406-11.175781 13.792968-14.347656 17.710937zm-38.539063-106.136719c-2.113281-.113281-4.199219.003907-6.230469.316407v-2.84375c0-24.714844 20.105469-44.824219 44.820313-44.824219 22.589844 0 44.820313 17.050781 44.820313 47.59375-.363282-.050781-.726563-.09375-1.089844-.132812-1.925782-2.367188-4.746094-5.230469-12.46875-13.53125-3.679688-3.953126-9.632813-4.679688-14.152344-1.726563-14.617188 9.546875-36.304688 16.179687-55.699219 15.148437zm7.097657 41.085938v-25.945312c19.871093-.535157 40.335937-7.8125 53.984374-15.96875 4.4375 4.753906 7.53125 8.003906 9.003907 9.660156v32.222656c-.253907 10.535156-4.90625 19.839844-13.855469 25.804688-20.386719 13.566406-49.132812-.429688-49.132812-25.773438zm7.183593 58.972656 13.394531 16.535156c-6.417968 4.558594-10.679687 7.585938-10.921874 7.757813l-10.558594-21.160156zm-69.289062 46.605469c0-18.601563 15.65625-25.769531 16.707031-26.230469l30.445312-11.800781 13.300782 26.652344c2.871094 5.75 10.085937 7.835937 15.597656 4.390625l1.53125 2.300781-7.832031 65.265625h-33.34375v-52.199219c0-4.140625-3.355469-7.5-7.5-7.5-4.140625 0-7.5 3.359375-7.5 7.5v52.199219h-21.40625zm229.601562 166.382813c0 2.765624-2.25 5.015624-5.015625 5.015624-11.820312 0-255.472656 0-262.046875 0-2.765625 0-5.019531-2.25-5.019531-5.015624v-60.027344h272.082031zm16.066407-77.460938c0 1.339844-1.09375 2.433594-2.433594 2.433594-9.644532 0-283.550782 0-299.410156 0-1.339844 0-2.429688-1.09375-2.429688-2.433594v-10.910156c0-1.339844 1.089844-2.429688 2.429688-2.429688h299.410156c1.339844 0 2.433594 1.089844 2.433594 2.429688zm0 0"/></svg>