<svg height="512pt" viewBox="0 -1 512 512" width="512pt" xmlns="http://www.w3.org/2000/svg"><path d="m489.902344 186.054688h-50.75v-63.707032c0-23.128906-18.078125-42.101562-40.84375-43.558594 7.824218-8.375 12.625-19.609374 12.625-31.945312 0-25.828125-21.015625-46.84375-46.84375-46.84375-25.832032 0-46.84375 21.015625-46.84375 46.84375 0 12.335938 4.800781 23.570312 12.625 31.945312-22.765625 1.457032-40.84375 20.429688-40.84375 43.558594v63.707032h-5.183594c-2.09375-9.8125-10.828125-17.199219-21.257812-17.199219h-39.613282v-46.507813c0-23.125-18.078125-42.101562-40.84375-43.558594 7.824219-8.375 12.625-19.605468 12.625-31.945312 0-25.828125-21.011718-46.84375-46.84375-46.84375-25.828125 0-46.84375 21.015625-46.84375 46.84375 0 12.339844 4.804688 23.570312 12.625 31.945312-22.765625 1.457032-40.84375 20.433594-40.84375 43.558594v63.707032h-50.75c-12.121094 0-22.0234372 9.742187-22.097656 21.953124v.144532 244.117187.140625c.0703125 11.910156 9.699219 21.957032 22.097656 21.957032h50.75v17.871093c0 9.375 7.625 17 17 17h116.125c9.375 0 17-7.625 17-17v-17.871093h15.007813c4.144531 0 7.503906-3.359376 7.503906-7.5 0-4.144532-3.359375-7.503907-7.503906-7.503907h-15.007813v-21.332031h66.054688v21.332031h-16.042969c-4.144531 0-7.5 3.359375-7.5 7.5 0 4.144531 3.355469 7.5 7.5 7.5h16.042969v17.875c0 9.375 7.625 17 17 17h116.125c9.375 0 17-7.625 17-17v-17.875h50.75c12.128906 0 22.011718-9.828125 22.09375-21.945312.003906-.050781.003906-.101563.003906-.148438 0-3.542969 0-113.917969 0-119.535156 0-4.144531-3.355469-7.5-7.5-7.5s-7.5 3.355469-7.5 7.5v83.097656.113281c-.007812 3.90625-3.1875 7.085938-7.097656 7.085938h-51.394532c-3.410156-19.613281-20-34.796875-40.199218-36.0625 27.835937-29.796875 6.679687-78.785156-34.21875-78.785156-40.925782 0-62.035156 49.011718-34.21875 78.785156-19.480469 1.148438-36.691406 15.84375-40.203125 36.0625h-67.339844c-3.496094-20.121094-20.644531-34.910156-40.199219-36.0625 27.835938-29.796875 6.679688-78.785156-34.21875-78.785156-40.925781 0-62.03125 49.011718-34.21875 78.785156-19.832031 1.242188-36.710937 16.046875-40.199218 36.0625h-51.394532c-3.917968 0-7.089844-3.179688-7.097656-7.078125 0-.042969 0-.082031 0-.121094v-207.578125c0-.039062 0-.074218 0-.113281.007812-3.929687 3.191406-7.082031 7.097656-7.082031h116.976563v33.3125c0 11.984375 9.75 21.734375 21.734375 21.734375h28.460937v33.582031c0 11.984375 9.75 21.734375 21.734375 21.734375h49.636719c.710937 0 1.375.3125 1.824219.863281l25.886718 31.675782c6.429688 7.867187 19.042969 3.214843 19.042969-6.792969v-25.746094h5.386719c11.984375 0 21.734375-9.75 21.734375-21.734375v-43.78125c0-11.984375-9.75-21.734375-21.734375-21.734375h-28.460938v-23.113281h205.582032c3.910156 0 7.089844 3.179687 7.097656 7.078125v.121093 89.472657c0 4.144531 3.355469 7.503906 7.5 7.503906s7.5-3.359375 7.5-7.503906v-89.578125c0-.046875 0-.097656 0-.144532-.078125-12.117187-9.964844-21.953124-22.097656-21.953124zm-50.75 251.976562h50.75c2.292968 0 4.800781-.386719 7.097656-1.167969v15.300781.113282c-.007812 3.90625-3.1875 7.085937-7.097656 7.085937h-50.75zm-75.0625-114.847656c17.558594 0 31.84375 14.285156 31.84375 31.84375s-14.285156 31.84375-31.84375 31.84375-31.84375-14.285156-31.84375-31.84375 14.285156-31.84375 31.84375-31.84375zm-60.0625 107.347656c0-15.804688 12.859375-28.660156 28.660156-28.660156h62.804688c15.800781 0 28.660156 12.855468 28.660156 28.660156v61.707031c0 1.105469-.898438 2-2 2h-15.320313v-46.183593c0-4.140626-3.355469-7.5-7.5-7.5s-7.5 3.359374-7.5 7.5v46.183593h-55.484375v-46.183593c0-4.140626-3.355468-7.5-7.5-7.5-4.144531 0-7.5 3.359374-7.5 7.5v46.183593h-15.320312c-1.105469 0-2-.894531-2-2 0-6.503906 0-53.703125 0-61.707031zm-156.117188-107.347656c17.558594 0 31.84375 14.285156 31.84375 31.84375s-14.285156 31.84375-31.84375 31.84375-31.84375-14.285156-31.84375-31.84375 14.285156-31.84375 31.84375-31.84375zm-60.0625 107.347656c0-15.804688 12.859375-28.660156 28.660156-28.660156h62.804688c15.804688 0 28.660156 12.855468 28.660156 28.660156v61.707031c0 1.101563-.894531 2-2 2h-15.320312v-46.183593c0-4.144532-3.355469-7.503907-7.5-7.503907-4.140625 0-7.5 3.359375-7.5 7.503907v46.183593h-55.484375v-46.183593c0-4.144532-3.355469-7.503907-7.5-7.503907-4.140625 0-7.5 3.359375-7.5 7.503907v46.183593h-15.320313c-1.101562 0-2-.898437-2-2 0-6.5 0-53.699219 0-61.707031zm-65.75 7.5h50.75v21.332031h-50.75c-3.949218 0-7.089844-3.199219-7.097656-7.078125 0-.039062 0-.078125 0-.117187v-15.300781c2.097656.710937 4.664062 1.164062 7.097656 1.164062zm125.8125-423.03125c17.558594 0 31.84375 14.285156 31.84375 31.84375s-14.285156 31.84375-31.84375 31.84375-31.84375-14.285156-31.84375-31.84375 14.285156-31.84375 31.84375-31.84375zm-8.359375 171.054688h-19.382812v-46.183594c0-4.140625-3.355469-7.5-7.5-7.5s-7.5 3.359375-7.5 7.5v46.183594h-17.320313v-63.707032c0-15.800781 12.859375-28.660156 28.660156-28.660156h62.804688c15.804688 0 28.660156 12.855469 28.660156 28.660156v41.785156l-22.734375-27.816406c-6.386719-7.8125-19.039062-3.285156-19.039062 6.792969v25.746094h-5.390625c-10.378906 0-19.152344 7.34375-21.257813 17.199219zm50.253907 55.050781h-28.996094c-3.714844 0-6.734375-3.023438-6.734375-6.734375 0-9.257813 0-34.441406 0-43.777344 0-3.714844 3.019531-6.734375 6.734375-6.734375h8.671875c6.460937 0 11.71875-5.257813 11.71875-11.71875v-17.058594l18.3125 22.40625c4.996093 6.105469 10.816406 6.371094 15.960937 6.371094h47.113282c3.714843 0 6.734374 3.019531 6.734374 6.734375v33.578125h-58.316406c-10.128906 0-18.953125 7.0625-21.199218 16.933594zm122.976562-1.933594c3.714844 0 6.734375 3.023437 6.734375 6.734375v43.777344c0 3.714844-3.019531 6.734375-6.734375 6.734375h-8.667969c-6.464843 0-11.71875 5.257812-11.71875 11.71875v17.0625l-18.316406-22.410157c-3.3125-4.046874-8.207031-6.371093-13.4375-6.371093h-49.636719c-3.714844 0-6.734375-3.019531-6.734375-6.734375 0-4.679688 0-39.113282 0-43.777344 0-3.710938 3.023438-6.734375 6.734375-6.734375zm51.308594-224.171875c17.558594 0 31.84375 14.285156 31.84375 31.84375s-14.285156 31.84375-31.84375 31.84375-31.84375-14.285156-31.84375-31.84375 14.285156-31.84375 31.84375-31.84375zm60.0625 171.054688h-17.320313v-46.183594c0-4.140625-3.355469-7.5-7.5-7.5s-7.5 3.359375-7.5 7.5v46.183594h-55.484375v-46.183594c0-4.140625-3.355468-7.5-7.5-7.5-4.144531 0-7.5 3.359375-7.5 7.5v46.183594h-17.320312v-63.707032c0-15.800781 12.855468-28.660156 28.660156-28.660156h62.804688c15.804687 0 28.660156 12.855469 28.660156 28.660156zm0 0"/></svg>