<?xml version="1.0"?><svg fill="#000000" xmlns="http://www.w3.org/2000/svg"  viewBox="0 0 80 80" width="80px" height="80px">    <path d="M 25.5 18 C 23.578812 18 22 19.578812 22 21.5 C 22 22.845822 22.873903 23.862705 24 24.447266 L 24 32 L 5.5 32 C 3.5788117 32 2 33.578812 2 35.5 C 2 36.845822 2.8739025 37.862705 4 38.447266 L 4 67 L 6 67 A 1.0001 1.0001 0 1 0 6 65 L 6 39 A 1 1 0 0 0 7 38 A 1 1 0 0 0 6 37 A 1 1 0 0 0 5.6542969 37.0625 L 5.1992188 36.970703 C 4.5169675 36.831981 4 36.23533 4 35.5 C 4 34.659188 4.6591883 34 5.5 34 L 26 34 L 26 25 A 1 1 0 0 0 27 24 A 1 1 0 0 0 26 23 A 1 1 0 0 0 25.654297 23.0625 L 25.199219 22.970703 C 24.516967 22.831981 24 22.23533 24 21.5 C 24 20.659188 24.659188 20 25.5 20 L 54.5 20 C 55.340812 20 56 20.659188 56 21.5 C 56 22.236722 55.483582 22.831869 54.800781 22.970703 L 54.345703 23.0625 A 1 1 0 0 0 54 23 A 1 1 0 0 0 53 24 A 1 1 0 0 0 54 25 L 54 40 L 74.5 40 C 75.340812 40 76 40.659188 76 41.5 C 76 42.236722 75.483582 42.831869 74.800781 42.970703 L 74.345703 43.0625 A 1 1 0 0 0 74 43 A 1 1 0 0 0 73 44 A 1 1 0 0 0 74 45 L 74 65 A 1.0001 1.0001 0 1 0 74 67 L 76 67 L 76 44.447266 C 77.125957 43.86287 78 42.846309 78 41.5 C 78 39.578812 76.421188 38 74.5 38 L 56 38 L 56 24.447266 C 57.125957 23.86287 58 22.846309 58 21.5 C 58 19.578812 56.421188 18 54.5 18 L 25.5 18 z M 30 23 A 1 1 0 0 0 29 24 A 1 1 0 0 0 30 25 A 1 1 0 0 0 31 24 A 1 1 0 0 0 30 23 z M 34 23 A 1 1 0 0 0 33 24 A 1 1 0 0 0 34 25 A 1 1 0 0 0 35 24 A 1 1 0 0 0 34 23 z M 38 23 A 1 1 0 0 0 37 24 A 1 1 0 0 0 38 25 A 1 1 0 0 0 39 24 A 1 1 0 0 0 38 23 z M 42 23 A 1 1 0 0 0 41 24 A 1 1 0 0 0 42 25 A 1 1 0 0 0 43 24 A 1 1 0 0 0 42 23 z M 46 23 A 1 1 0 0 0 45 24 A 1 1 0 0 0 46 25 A 1 1 0 0 0 47 24 A 1 1 0 0 0 46 23 z M 50 23 A 1 1 0 0 0 49 24 A 1 1 0 0 0 50 25 A 1 1 0 0 0 51 24 A 1 1 0 0 0 50 23 z M 38.796875 30.095703 L 36.287109 31.804688 L 36.287109 33.964844 L 38.667969 32.359375 L 38.796875 32.359375 L 38.796875 39.960938 L 41.306641 39.960938 L 41.306641 30.095703 L 38.796875 30.095703 z M 10 37 A 1 1 0 0 0 9 38 A 1 1 0 0 0 10 39 A 1 1 0 0 0 11 38 A 1 1 0 0 0 10 37 z M 14 37 A 1 1 0 0 0 13 38 A 1 1 0 0 0 14 39 A 1 1 0 0 0 15 38 A 1 1 0 0 0 14 37 z M 18 37 A 1 1 0 0 0 17 38 A 1 1 0 0 0 18 39 A 1 1 0 0 0 19 38 A 1 1 0 0 0 18 37 z M 22 37 A 1 1 0 0 0 21 38 A 1 1 0 0 0 22 39 A 1 1 0 0 0 23 38 A 1 1 0 0 0 22 37 z M 26 37 A 1 1 0 0 0 25 38 A 1 1 0 0 0 26 39 A 1 1 0 0 0 27 38 A 1 1 0 0 0 26 37 z M 54 43 A 1 1 0 0 0 53 44 A 1 1 0 0 0 54 45 A 1 1 0 0 0 55 44 A 1 1 0 0 0 54 43 z M 58 43 A 1 1 0 0 0 57 44 A 1 1 0 0 0 58 45 A 1 1 0 0 0 59 44 A 1 1 0 0 0 58 43 z M 62 43 A 1 1 0 0 0 61 44 A 1 1 0 0 0 62 45 A 1 1 0 0 0 63 44 A 1 1 0 0 0 62 43 z M 66 43 A 1 1 0 0 0 65 44 A 1 1 0 0 0 66 45 A 1 1 0 0 0 67 44 A 1 1 0 0 0 66 43 z M 70 43 A 1 1 0 0 0 69 44 A 1 1 0 0 0 70 45 A 1 1 0 0 0 71 44 A 1 1 0 0 0 70 43 z M 17.015625 44.830078 C 14.725625 44.830078 13.192406 46.155187 13.191406 48.117188 L 13.191406 48.158203 L 15.488281 48.158203 L 15.488281 48.111328 C 15.488281 47.297328 16.077781 46.722656 16.925781 46.722656 C 17.739781 46.722656 18.271484 47.208594 18.271484 47.933594 C 18.271484 48.514594 17.902125 49.013516 16.453125 50.353516 L 13.337891 53.285156 L 13.337891 54.960938 L 20.835938 54.960938 L 20.835938 53.005859 L 16.679688 53.005859 L 16.679688 52.876953 L 18.306641 51.378906 C 20.056641 49.819906 20.699219 48.849859 20.699219 47.755859 C 20.699219 46.012859 19.223625 44.830078 17.015625 44.830078 z M 64.001953 49.830078 C 61.711953 49.830078 60.233219 51.060281 60.199219 52.988281 L 62.476562 52.988281 C 62.504562 52.216281 63.086266 51.703125 63.947266 51.703125 C 64.822266 51.703125 65.361328 52.148234 65.361328 52.865234 C 65.361328 53.582234 64.807797 54.054688 63.966797 54.054688 L 62.757812 54.054688 L 62.757812 55.785156 L 63.96875 55.785156 C 64.92575 55.785156 65.505859 56.250766 65.505859 57.009766 C 65.505859 57.747766 64.890953 58.253906 64.001953 58.253906 C 63.051953 58.253906 62.442203 57.787156 62.408203 57.035156 L 60.015625 57.035156 C 60.104625 58.969156 61.656937 60.228516 63.960938 60.228516 C 66.373937 60.228516 68.054688 58.983219 68.054688 57.199219 C 68.054687 55.927219 67.186172 55.032672 65.826172 54.888672 L 65.826172 54.759766 C 66.933172 54.554766 67.691406 53.658437 67.691406 52.523438 C 67.691406 50.931438 66.189953 49.830078 64.001953 49.830078 z M 10 65 A 1 1 0 0 0 9 66 A 1 1 0 0 0 10 67 A 1 1 0 0 0 11 66 A 1 1 0 0 0 10 65 z M 14 65 A 1 1 0 0 0 13 66 A 1 1 0 0 0 14 67 A 1 1 0 0 0 15 66 A 1 1 0 0 0 14 65 z M 18 65 A 1 1 0 0 0 17 66 A 1 1 0 0 0 18 67 A 1 1 0 0 0 19 66 A 1 1 0 0 0 18 65 z M 22 65 A 1 1 0 0 0 21 66 A 1 1 0 0 0 22 67 A 1 1 0 0 0 23 66 A 1 1 0 0 0 22 65 z M 26 65 A 1 1 0 0 0 25 66 A 1 1 0 0 0 26 67 A 1 1 0 0 0 27 66 A 1 1 0 0 0 26 65 z M 30 65 A 1 1 0 0 0 29 66 A 1 1 0 0 0 30 67 A 1 1 0 0 0 31 66 A 1 1 0 0 0 30 65 z M 34 65 A 1 1 0 0 0 33 66 A 1 1 0 0 0 34 67 A 1 1 0 0 0 35 66 A 1 1 0 0 0 34 65 z M 38 65 A 1 1 0 0 0 37 66 A 1 1 0 0 0 38 67 A 1 1 0 0 0 39 66 A 1 1 0 0 0 38 65 z M 42 65 A 1 1 0 0 0 41 66 A 1 1 0 0 0 42 67 A 1 1 0 0 0 43 66 A 1 1 0 0 0 42 65 z M 46 65 A 1 1 0 0 0 45 66 A 1 1 0 0 0 46 67 A 1 1 0 0 0 47 66 A 1 1 0 0 0 46 65 z M 50 65 A 1 1 0 0 0 49 66 A 1 1 0 0 0 50 67 A 1 1 0 0 0 51 66 A 1 1 0 0 0 50 65 z M 54 65 A 1 1 0 0 0 53 66 A 1 1 0 0 0 54 67 A 1 1 0 0 0 55 66 A 1 1 0 0 0 54 65 z M 58 65 A 1 1 0 0 0 57 66 A 1 1 0 0 0 58 67 A 1 1 0 0 0 59 66 A 1 1 0 0 0 58 65 z M 62 65 A 1 1 0 0 0 61 66 A 1 1 0 0 0 62 67 A 1 1 0 0 0 63 66 A 1 1 0 0 0 62 65 z M 66 65 A 1 1 0 0 0 65 66 A 1 1 0 0 0 66 67 A 1 1 0 0 0 67 66 A 1 1 0 0 0 66 65 z M 70 65 A 1 1 0 0 0 69 66 A 1 1 0 0 0 70 67 A 1 1 0 0 0 71 66 A 1 1 0 0 0 70 65 z"/></svg>