<svg id="Capa_1" enable-background="new 0 0 512 512" height="512" viewBox="0 0 512 512" width="512" xmlns="http://www.w3.org/2000/svg"><g><path d="m494.612 245.181h-17.484v-33.754c0-2.056-.844-4.021-2.334-5.437l-17.991-17.094c-3.002-2.853-7.749-2.732-10.603.271-2.853 3.003-2.731 7.75.271 10.603l15.657 14.877v30.534h-16.84c-.171-21.662-8.674-42.009-24.017-57.363-8.119-8.111-17.793-14.391-28.369-18.492 13.361-9.501 21.598-25.038 21.598-41.795v-32.301c0-13.693-5.334-26.567-15.018-36.251-9.677-9.678-22.547-15.007-36.24-15.007-28.264 0-51.258 22.994-51.258 51.258v32.302c0 16.753 8.232 32.287 21.587 41.789-31.104 11.987-52.119 41.827-52.391 75.861h-18.529v-33.754c0-2.056-.844-4.021-2.334-5.437l-17.991-17.094c-3.002-2.853-7.749-2.732-10.603.271-2.853 3.003-2.731 7.75.271 10.603l15.657 14.877v30.534h-15.778c-.029 0-.058.004-.087.004h-.975c-.17-21.663-8.673-42.012-24.016-57.367-8.119-8.111-17.795-14.391-28.371-18.492 13.362-9.498 21.599-25.035 21.599-41.795v-32.3c0-13.695-5.333-26.57-15.017-36.253-9.677-9.677-22.549-15.007-36.243-15.007-4.118 0-8.188.487-12.098 1.446-4.022.988-6.483 5.049-5.496 9.072.988 4.022 5.048 6.483 9.072 5.496 2.74-.673 5.607-1.014 8.521-1.014 9.688 0 18.793 3.769 25.637 10.613 6.851 6.85 10.623 15.958 10.623 25.647v6.426c-28.605 5.71-60.644-6.194-72.206-11.131.658-5.055 2.363-9.919 5.043-14.273 2.172-3.528 1.072-8.147-2.455-10.319-3.525-2.171-8.145-1.073-10.318 2.455-4.961 8.059-7.583 17.34-7.583 26.841v32.3c0 16.756 8.234 32.29 21.59 41.788-31.106 11.988-52.121 41.83-52.391 75.866h-16.825v-30.538l15.657-14.877c3.003-2.853 3.124-7.6.271-10.603-2.854-3.003-7.602-3.124-10.603-.271l-17.991 17.094c-1.49 1.416-2.334 3.381-2.334 5.437v33.758h-17.484c-9.194 0-16.675 7.48-16.675 16.675v14.92c0 9.195 7.48 16.675 16.675 16.675h6.7l29.18 198.82c.241 1.643.674 3.217 1.243 4.723h-27.152c-4.143 0-7.5 3.358-7.5 7.5s3.357 7.5 7.5 7.5h97.449c4.143 0 7.5-3.358 7.5-7.5s-3.357-7.5-7.5-7.5h-48.72c-3.973 0-7.402-2.965-7.978-6.899l-28.86-196.645 219.014.004-2.897 19.692-25.948 176.94c-.583 3.938-4.018 6.907-7.991 6.907h-61.62c-4.143 0-7.5 3.358-7.5 7.5s3.357 7.5 7.5 7.5h324.829c4.143 0 7.5-3.358 7.5-7.5s-3.357-7.5-7.5-7.5h-27.152c.569-1.506 1.003-3.08 1.245-4.722l29.172-198.817h6.705c9.191 0 16.67-7.483 16.67-16.68v-14.92c-.001-9.194-7.479-16.677-16.67-16.677zm-156.284-61.608c2.022 8.941 8.739 16.119 17.418 18.788v17.3l-27.501-31.057c3.183-1.94 6.551-3.627 10.083-5.031zm32.418 18.784c8.675-2.672 15.388-9.85 17.408-18.788 3.488 1.396 6.853 3.086 10.059 5.048l-27.468 31.026v-17.286zm-7.506-143.385c9.686 0 18.789 3.769 25.634 10.614 6.852 6.851 10.625 15.958 10.625 25.644v6.429c-28.602 5.71-60.637-6.191-72.201-11.129 2.313-17.78 17.544-31.558 35.942-31.558zm-36.257 68.56v-20.899c12.344 4.81 33.67 11.555 56.208 11.555 5.403 0 10.875-.389 16.309-1.285v10.628c0 14.202-8.363 27.168-21.307 33.033-2.682 1.215-4.404 3.887-4.404 6.832v10.541c0 5.816-4.731 10.547-10.548 10.547-5.815 0-10.547-4.731-10.547-10.547v-10.541c0-2.944-1.723-5.616-4.404-6.832-12.944-5.865-21.307-18.831-21.307-33.032zm-10.61 70.291 39.373 44.465v2.894h-59.567c.179-18.363 7.746-35.217 20.194-47.359zm-100.562 47.363h-59.541v-2.912l39.325-44.421c.197.192.399.379.594.573 12.507 12.518 19.452 29.101 19.622 46.76zm-91.964-61.611c2.022 8.939 8.741 16.116 17.423 18.784v17.302l-27.501-31.057c3.182-1.939 6.548-3.626 10.078-5.029zm49.832-.005c3.488 1.396 6.853 3.086 10.059 5.048l-27.469 31.027v-17.29c8.677-2.672 15.391-9.848 17.41-18.785zm-61.176-56.038v-20.9c12.344 4.81 33.672 11.557 56.212 11.557 5.403 0 10.874-.389 16.308-1.284v10.628c0 14.203-8.362 27.167-21.304 33.028-2.683 1.215-4.406 3.887-4.406 6.832v10.55c0 5.812-4.732 10.54-10.55 10.54s-10.55-4.728-10.55-10.54v-10.55c0-2.945-1.724-5.617-4.406-6.832-12.942-5.862-21.304-18.826-21.304-33.029zm-10.607 70.291 39.373 44.464v2.899h-59.566c.178-18.364 7.745-35.22 20.193-47.363zm-86.178 78.958v-14.92c0-.924.751-1.675 1.675-1.675h262.742c.924 0 1.675.751 1.675 1.675v14.92c0 .924-.751 1.675-1.675 1.675h-262.742c-.924.001-1.675-.751-1.675-1.675zm240.283 135.461 11.744 80.04c.241 1.641.676 3.213 1.244 4.719h-25.974c.57-1.506 1.005-3.08 1.248-4.722zm213.851-99.085-25.958 176.941c-.579 3.935-4.014 6.902-7.988 6.902h-145.333c-3.975 0-7.409-2.967-7.987-6.899l-19.006-129.538 6.633-45.231 3.217-21.871h199.317zm26.43-36.376c0 .926-.749 1.68-1.67 1.68h-197.887c.056-.553.085-1.113.085-1.68v-14.92c0-.567-.03-1.127-.085-1.68h87.727c4.143 0 7.5-3.358 7.5-7.5s-3.357-7.5-7.5-7.5h-13.706v-2.909l39.325-44.42c.197.192.399.379.594.574 12.507 12.516 19.452 29.098 19.622 46.755h-10.835c-4.143 0-7.5 3.358-7.5 7.5s3.357 7.5 7.5 7.5h75.16c.921 0 1.67.753 1.67 1.68z"/><path d="m321.811 398.304h82.859c9.765 0 17.708-7.943 17.708-17.707v-41.668c0-9.764-7.943-17.707-17.708-17.707h-82.859c-9.765 0-17.708 7.943-17.708 17.707v41.668c0 9.763 7.943 17.707 17.708 17.707zm-2.708-59.375c0-1.493 1.215-2.707 2.708-2.707h82.859c1.493 0 2.708 1.214 2.708 2.707v41.668c0 1.493-1.215 2.707-2.708 2.707h-82.859c-1.493 0-2.708-1.214-2.708-2.707z"/><path d="m207.901 380.596v-41.668c0-9.764-7.943-17.707-17.708-17.707h-82.859c-9.764 0-17.707 7.943-17.707 17.707v41.668c0 9.764 7.943 17.707 17.707 17.707h82.859c9.765.001 17.708-7.943 17.708-17.707zm-103.274 0v-41.668c0-1.493 1.215-2.707 2.707-2.707h82.859c1.493 0 2.708 1.214 2.708 2.707v41.668c0 1.493-1.215 2.707-2.708 2.707h-82.859c-1.492.001-2.707-1.213-2.707-2.707z"/><path d="m217.261 67.272c1.247 3.514 4.58 5.864 8.305 5.864h.059c3.749-.025 7.078-2.426 8.301-6.025l18.981-57.137c1.307-3.931-.822-8.176-4.753-9.482-3.928-1.305-8.176.822-9.481 4.753l-13.235 39.839-13.898-40.04c-1.357-3.913-5.633-5.985-9.544-4.626-3.913 1.358-5.984 5.632-4.626 9.545z"/><path d="m284.339 73.136c12.364 0 22.749-7.898 24.691-18.781 1.464-8.198-2.246-18.904-17.048-24.364-1.949-.719-3.771-1.345-5.477-1.931-5.903-2.028-9.084-3.19-11.245-5.427-.87-.901-.639-2.249-.498-2.787.508-1.95 2.22-3.539 4.578-4.249 8.069-2.432 15.569 3.485 15.784 3.656 3.17 2.628 7.872 2.209 10.526-.949 2.665-3.171 2.256-7.902-.915-10.567-.553-.465-13.722-11.322-29.722-6.503-7.408 2.231-12.929 7.775-14.768 14.828-1.622 6.223-.042 12.576 4.227 16.993 4.767 4.933 10.51 6.906 17.16 9.19 1.605.552 3.321 1.141 5.157 1.818 1.945.718 8.234 3.39 7.473 7.655-.562 3.155-4.43 6.417-9.925 6.417-5.713 0-11.209-2.301-14.701-6.154-2.783-3.07-7.525-3.301-10.595-.521-3.068 2.782-3.302 7.525-.521 10.594 6.386 7.043 15.795 11.082 25.819 11.082z"/></g></svg>