<?xml version="1.0" encoding="UTF-8"?>
<svg width="500px" height="132px" viewBox="0 0 500 132" version="1.1" xmlns="http://www.w3.org/2000/svg" xmlns:xlink="http://www.w3.org/1999/xlink">
    <!-- Generator: Sketch 54.1 (76490) - https://sketchapp.com -->
    <title>n2p-logo</title>
    <desc>Created with Sketch.</desc>
    <g id="n2p-logo" stroke="none" stroke-width="1" fill="none" fill-rule="evenodd">
        <g id="Logo/Net2Phone-blue-red2" transform="translate(38.000000, 22.000000)">
            <rect id="Rectangle" x="0" y="0" width="424" height="88"></rect>
            <path d="M187.623701,67.6993155 C188.05782,65.4273595 188.231174,63.8548828 188.231174,63.8548828 L188.405017,63.8548828 C191.356437,67.0878241 195.609725,68.573296 200.123288,68.573296 C212.363088,68.573296 224.602399,57.3885086 224.602399,41.0488094 C224.602399,29.1655258 218.092086,21.4761688 207.328484,21.4761688 C202.033117,21.4761688 196.998513,23.8351296 193.873739,27.6800539 L193.699896,27.6800539 C193.699896,27.6800539 194.220936,26.2820784 194.481212,24.7966065 L194.91533,22.5246505 L181.373663,22.5246505 L169.394628,85 L184.325084,85 L187.623701,67.6993155 Z M191.269516,48.1266749 C191.269516,39.3013399 197.866751,34.2334329 202.467235,34.2334329 C206.807444,34.2334329 209.411668,37.291873 209.411668,42.1847874 C209.411668,51.0101223 203.421906,56.0780294 198.213948,56.0780294 C193.352699,56.0780294 191.269516,52.4955942 191.269516,48.1266749 L191.269516,48.1266749 Z M223.498791,67.5243227 L238.51568,67.5243227 L242.335337,47.6021883 C243.550283,41.0488094 248.584886,35.1944181 254.487727,35.1944181 C257.178871,35.1944181 258.480739,36.3303962 258.480739,39.0393424 C258.480739,39.6508338 258.393817,40.6118191 258.220463,41.6607923 L253.18586,67.5243227 L268.202748,67.5243227 L273.67147,39.2138436 C274.018668,37.3788778 274.278943,35.7189047 274.278943,34.2334329 C274.278943,24.8841028 267.942473,21.4761688 260.216725,21.4761688 C254.487727,21.4761688 248.584886,24.6216137 246.067585,28.6410392 L245.89423,28.6410392 C245.89423,28.6410392 246.328349,27.0685625 246.761979,24.7966065 L250.581636,5.0489732 L235.564259,5.0489732 L223.498791,67.5243227 Z M275.224335,48.3886724 C275.224335,60.7089463 284.946345,68.573296 298.400602,68.573296 C312.289467,68.573296 326.264764,57.5635013 326.264764,41.6607923 C326.264764,29.4275233 316.542754,21.4761688 303.088009,21.4761688 C289.112711,21.4761688 275.224335,32.5729682 275.224335,48.3886724 L275.224335,48.3886724 Z M290.414579,47.6896847 C290.414579,39.4763327 297.011814,34.0584401 302.914654,34.0584401 C307.60206,34.0584401 311.074032,37.291873 311.074032,42.6217776 C311.074032,50.8351296 304.65064,55.9905331 298.661367,55.9905331 C293.887039,55.9905331 290.414579,52.9325845 290.414579,47.6896847 L290.414579,47.6896847 Z M324.275827,67.5243227 L339.293204,67.5243227 L343.112373,47.6021883 C344.327808,41.0488094 349.362411,35.1944181 355.265252,35.1944181 C357.955908,35.1944181 359.258263,36.3303962 359.258263,39.0393424 C359.258263,39.6508338 359.171342,40.6118191 358.997499,41.6607923 L353.962896,67.5243227 L368.980273,67.5243227 L374.448995,39.2138436 C374.796192,37.3788778 375.056468,35.7189047 375.056468,34.2334329 C375.056468,24.8841028 368.719997,21.4761688 360.994249,21.4761688 C354.831133,21.4761688 348.581095,25.2335967 346.063794,29.2530221 L345.890439,29.2530221 C345.890439,29.2530221 346.584833,27.0685625 347.018952,24.7966065 L347.452582,22.5246505 L332.956245,22.5246505 L324.275827,67.5243227 Z M376.322688,48.913159 C376.322688,59.4859634 383.874593,68.573296 399.152246,68.573296 C409.308374,68.573296 417.205523,62.7189047 417.205523,62.7189047 L413.387819,51.4471126 C413.387819,51.4471126 406.61723,55.9905331 400.106916,55.9905331 C394.551761,55.9905331 391.339577,53.0195893 391.339577,47.9516822 L419.54947,47.9516822 C419.54947,47.9516822 421.2,43.233269 421.2,39.1263472 C421.2,28.7285355 414.777096,21.4761688 402.103666,21.4761688 C387.346565,21.4761688 376.322688,33.2724476 376.322688,48.913159 L376.322688,48.913159 Z M393.336327,39.3013399 C394.725116,35.7189047 397.502693,32.8354573 401.842902,32.8354573 C404.881244,32.8354573 406.61723,34.9324206 406.61723,37.7283717 C406.61723,38.2528583 406.530308,39.3013399 406.530308,39.3013399 L393.336327,39.3013399 Z M0,67.5243227 L8.68041807,22.5246505 L23.1767553,22.5246505 L22.7426367,24.7961149 C22.3085182,27.0680709 21.6141238,29.2525306 21.6141238,29.2525306 L21.7879665,29.2525306 C24.3052682,25.2331052 30.555306,21.4756773 36.717934,21.4756773 C44.4436819,21.4756773 50.780641,24.8836113 50.780641,34.2329413 C50.780641,35.7184132 50.5198769,37.3788778 50.1726797,39.2138436 L44.7039577,67.5243227 L29.6870688,67.5243227 L34.7216723,41.6603008 C34.895515,40.6118191 34.9819481,39.6508338 34.9819481,39.0388509 C34.9819481,36.3303962 33.6800807,35.1944181 30.9889362,35.1944181 C25.086584,35.1944181 20.0519806,41.0488094 18.8365463,47.6021883 L15.0173772,67.5243227 L0,67.5243227 Z M52.0463725,48.9126675 C52.0463725,33.271956 63.0707379,21.4756773 77.8273509,21.4756773 C90.5007808,21.4756773 96.924173,28.7285355 96.924173,39.1263472 C96.924173,43.233269 95.2751084,47.9516822 95.2751084,47.9516822 L67.0637497,47.9516822 C67.0637497,53.0195893 70.2754458,55.9905331 75.8310892,55.9905331 C82.3414027,55.9905331 89.1119921,51.446621 89.1119921,51.446621 L92.9311612,62.7184132 C92.9311612,62.7184132 85.0320588,68.5728044 74.8759306,68.5728044 C59.598766,68.5728044 52.0463725,59.4854719 52.0463725,48.9126675 Z M69.0600115,39.3013399 L82.2544813,39.3013399 C82.2544813,39.3013399 82.3414027,38.2523667 82.3414027,37.7283717 C82.3414027,34.9324206 80.6054168,32.8349658 77.5670751,32.8349658 C73.2268661,32.8349658 70.4492886,35.7184132 69.0600115,39.3013399 Z M100.474276,53.5435843 C100.474276,52.4951027 100.648119,51.2721199 100.908395,50.0486455 L103.859815,35.1069218 L98.2172506,35.1069218 L100.474276,23.310643 L106.637393,23.310643 L109.154695,10.3788778 L123.56411,10.3788778 L121.046809,23.310643 L130.508543,23.310643 L128.251517,35.1069218 L118.790271,35.1069218 L116.359402,47.9516822 C116.186048,48.7381663 116.099127,49.8736528 116.099127,50.310643 C116.099127,53.9805746 119.397744,54.6795623 122.696362,54.6795623 C123.998229,54.6795623 125.039821,54.5925575 125.039821,54.5925575 L122.522519,67.6993155 C122.522519,67.6993155 120.265493,67.961313 118.529507,67.961313 C108.720576,67.961313 100.474276,63.9418876 100.474276,53.5435843 Z" id="logo-net2phone" fill="#0095FF" fill-rule="evenodd"></path>
            <path d="M126.453514,67.5243227 L169.334564,67.5243227 L171.851866,54.4175648 L146.24473,54.4175648 C148.762032,46.9032006 177.320588,41.2233105 177.320588,21.3011761 C177.320588,9.94188756 167.078027,4 157.616293,4 C142.33864,4 134.09234,16.6702592 134.09234,16.6702592 L144.76902,25.058604 C144.76902,25.058604 148.935875,18.4177287 155.272345,18.4177287 C158.136844,18.4177287 160.91491,19.8157042 160.91491,23.2236382 C160.91491,35.0194254 126.453514,37.2913814 126.453514,67.5243227" id="Path" fill="#ED1F27" fill-rule="evenodd"></path>
        </g>
    </g>
</svg>